<svg width="16" height="13" viewBox="0 0 16 13" fill="none" xmlns="http://www.w3.org/2000/svg">
<path d="M1 3.33322L7.13667 7.42434C7.39229 7.59489 7.6927 7.6859 8 7.6859C8.3073 7.6859 8.60771 7.59489 8.86333 7.42434L15 3.33322M2.55556 11.8888H13.4444C13.857 11.8888 14.2527 11.7249 14.5444 11.4332C14.8361 11.1414 15 10.7458 15 10.3332V2.55545C15 2.14289 14.8361 1.74723 14.5444 1.4555C14.2527 1.16378 13.857 0.999891 13.4444 0.999891H2.55556C2.143 0.999891 1.74733 1.16378 1.45561 1.4555C1.16389 1.74723 1 2.14289 1 2.55545V10.3332C1 10.7458 1.16389 11.1414 1.45561 11.4332C1.74733 11.7249 2.143 11.8888 2.55556 11.8888Z" stroke="#1890FF" stroke-width="1.3" stroke-linecap="round" stroke-linejoin="round"/>
</svg>
