<svg width="16" height="16" viewBox="0 0 16 16" fill="none" xmlns="http://www.w3.org/2000/svg">
<path d="M5.66667 1V2.55556V1ZM10.3333 1V2.55556V1ZM5.66667 13.4444V15V13.4444ZM10.3333 13.4444V15V13.4444ZM2.55556 5.66667H1H2.55556ZM2.55556 10.3333H1H2.55556ZM15 5.66667H13.4444H15ZM15 10.3333H13.4444H15ZM4.11111 13.4444H11.8889C12.3014 13.4444 12.6971 13.2806 12.9888 12.9888C13.2806 12.6971 13.4444 12.3014 13.4444 11.8889V4.11111C13.4444 3.69855 13.2806 3.30289 12.9888 3.01117C12.6971 2.71944 12.3014 2.55556 11.8889 2.55556H4.11111C3.69855 2.55556 3.30289 2.71944 3.01117 3.01117C2.71944 3.30289 2.55556 3.69855 2.55556 4.11111V11.8889C2.55556 12.3014 2.71944 12.6971 3.01117 12.9888C3.30289 13.2806 3.69855 13.4444 4.11111 13.4444ZM5.66667 5.66667H10.3333V10.3333H5.66667V5.66667Z" stroke="black" stroke-width="1.3" stroke-linecap="round" stroke-linejoin="round"/>
</svg>
