<svg width="20" height="18" viewBox="0 0 20 18" fill="none" xmlns="http://www.w3.org/2000/svg">
<path d="M13.0141 7.07344H19.0398C19.225 7.07344 19.375 6.92344 19.375 6.73828V0.710156C19.375 0.525 19.225 0.375 19.0398 0.375H13.0141C12.8289 0.375 12.6789 0.525 12.6789 0.710156V2.8875H9.49844C9.40703 2.8875 9.33203 2.9625 9.33203 3.05391V8.24531H7.32344V5.98359C7.32344 5.79844 7.17344 5.64844 6.98828 5.64844H0.960156C0.775 5.64844 0.625 5.79844 0.625 5.98359V12.0117C0.625 12.1969 0.775 12.3469 0.960156 12.3469H6.98594C7.17109 12.3469 7.32109 12.1969 7.32109 12.0117V9.75H9.32969V14.9414C9.32969 15.0328 9.40469 15.1078 9.49609 15.1078H12.6766V17.2852C12.6766 17.4703 12.8266 17.6203 13.0117 17.6203H19.0375C19.2227 17.6203 19.3727 17.4703 19.3727 17.2852V11.2617C19.3727 11.0766 19.2227 10.9266 19.0375 10.9266H13.0141C12.8289 10.9266 12.6789 11.0766 12.6789 11.2617V13.6055H10.8367V4.39453H12.6789V6.73828C12.6789 6.92344 12.8289 7.07344 13.0141 7.07344ZM14.268 1.96641H17.7836V5.48438H14.268V1.96641ZM5.73203 10.7578H2.21641V7.24219H5.73203V10.7578ZM14.268 12.518H17.7836V16.0359H14.268V12.518Z" fill="#262626"/>
</svg>
