<svg width="14" height="16" viewBox="0 0 14 16" fill="none" xmlns="http://www.w3.org/2000/svg">
<path d="M11.1354 11.4697L8.03342 14.5717C7.89776 14.7075 7.73667 14.8152 7.55936 14.8887C7.38204 14.9622 7.19198 15 7.00004 15C6.8081 15 6.61804 14.9622 6.44072 14.8887C6.26341 14.8152 6.10232 14.7075 5.96666 14.5717L2.86398 11.4697C2.04606 10.6518 1.48907 9.60963 1.26342 8.47512C1.03778 7.34061 1.15362 6.16466 1.59629 5.09599C2.03897 4.02731 2.7886 3.1139 3.75039 2.47126C4.71219 1.82862 5.84294 1.48561 6.99968 1.48561C8.15641 1.48561 9.28717 1.82862 10.249 2.47126C11.2108 3.1139 11.9604 4.02731 12.4031 5.09599C12.8457 6.16466 12.9616 7.34061 12.7359 8.47512C12.5103 9.60963 11.9533 10.6518 11.1354 11.4697V11.4697Z" stroke="black" stroke-width="1.3" stroke-linecap="round" stroke-linejoin="round"/>
</svg>
