<svg width="20" height="20" viewBox="0 0 20 20" fill="none" xmlns="http://www.w3.org/2000/svg">
<path d="M17.3168 14.4039C16.7301 13.8168 16.0446 13.3376 15.2918 12.9883C16.3535 12.1281 17.0308 10.8156 17.0308 9.34372C17.0308 6.74685 14.8652 4.61638 12.2683 4.65622C9.71129 4.69606 7.65113 6.77966 7.65113 9.34372C7.65113 10.8156 8.33082 12.1281 9.3902 12.9883C8.63716 13.3373 7.95165 13.8165 7.3652 14.4039C6.08551 15.6859 5.35895 17.3781 5.31207 19.1828C5.31145 19.2078 5.31583 19.2327 5.32498 19.256C5.33412 19.2793 5.34783 19.3005 5.3653 19.3184C5.38278 19.3363 5.40366 19.3505 5.42672 19.3603C5.44978 19.37 5.47455 19.375 5.49957 19.375H6.81207C6.91285 19.375 6.99723 19.2953 6.99957 19.1945C7.0441 17.8351 7.59488 16.5625 8.56285 15.5968C9.05818 15.0989 9.64735 14.7041 10.2963 14.4354C10.9452 14.1666 11.641 14.0293 12.3433 14.0312C13.7707 14.0312 15.1136 14.5867 16.1238 15.5968C17.0894 16.5625 17.6402 17.8351 17.6871 19.1945C17.6894 19.2953 17.7738 19.375 17.8746 19.375H19.1871C19.2121 19.375 19.2369 19.37 19.2599 19.3603C19.283 19.3505 19.3039 19.3363 19.3213 19.3184C19.3388 19.3005 19.3525 19.2793 19.3617 19.256C19.3708 19.2327 19.3752 19.2078 19.3746 19.1828C19.3277 17.3781 18.6011 15.6859 17.3168 14.4039ZM12.3433 12.3437C11.5418 12.3437 10.7871 12.032 10.2222 11.4648C9.93876 11.1836 9.71484 10.8481 9.56384 10.4785C9.41283 10.1088 9.33784 9.71252 9.34332 9.31325C9.35035 8.5445 9.65738 7.80153 10.1941 7.25075C10.7566 6.67419 11.5089 6.3531 12.3129 6.34372C13.1074 6.33669 13.8785 6.64606 14.4457 7.20153C15.0269 7.77106 15.3457 8.53278 15.3457 9.34372C15.3457 10.1453 15.0339 10.8976 14.4668 11.4648C14.1885 11.7444 13.8575 11.9661 13.4931 12.1169C13.1286 12.2678 12.7378 12.3449 12.3433 12.3437ZM6.47223 9.96247C6.45113 9.75856 6.43941 9.55231 6.43941 9.34372C6.43941 8.97106 6.47457 8.60778 6.5402 8.25388C6.5566 8.1695 6.51207 8.08278 6.43473 8.04763C6.11598 7.90466 5.82301 7.70778 5.56988 7.45935C5.27162 7.17014 5.03691 6.82194 4.88074 6.43696C4.72457 6.05198 4.65036 5.63867 4.66285 5.22341C4.68395 4.47106 4.98629 3.75622 5.51363 3.21716C6.09254 2.62419 6.87066 2.30075 7.69801 2.31013C8.44566 2.31716 9.16754 2.60544 9.71363 3.11638C9.89879 3.28981 10.0582 3.482 10.1918 3.68825C10.2386 3.76091 10.33 3.79138 10.4097 3.76325C10.8222 3.62028 11.2582 3.5195 11.7058 3.47263C11.8371 3.45856 11.9121 3.31794 11.8535 3.20075C11.0918 1.69372 9.53551 0.653095 7.73551 0.62497C5.13629 0.585126 2.97066 2.7156 2.97066 5.31013C2.97066 6.782 3.64801 8.0945 4.70973 8.95466C3.96441 9.29919 3.2777 9.77497 2.68238 10.3703C1.39801 11.6523 0.671445 13.3445 0.62457 15.1515C0.623945 15.1765 0.628332 15.2014 0.637475 15.2247C0.646617 15.248 0.660329 15.2692 0.677803 15.2872C0.695276 15.3051 0.716158 15.3193 0.739218 15.329C0.762277 15.3387 0.787048 15.3437 0.81207 15.3437H2.12691C2.2277 15.3437 2.31207 15.264 2.31441 15.1632C2.35895 13.8039 2.90973 12.5312 3.8777 11.5656C4.56676 10.8765 5.41051 10.3984 6.3316 10.1664C6.42301 10.1429 6.48395 10.0562 6.47223 9.96247Z" fill="#262626"/>
</svg>
