<svg width="18" height="14" viewBox="0 0 18 14" fill="none" xmlns="http://www.w3.org/2000/svg">
<path d="M12.7504 13H16.5005V11.4999C16.5005 11.0323 16.3547 10.5763 16.0836 10.1954C15.8124 9.8144 15.4293 9.52737 14.9875 9.37419C14.5457 9.22101 14.0671 9.20928 13.6183 9.34064C13.1696 9.472 12.7728 9.73992 12.4834 10.1071M12.7504 13H5.25012M12.7504 13V11.4999C12.7504 11.0079 12.6559 10.5377 12.4834 10.1071M12.4834 10.1071C12.2048 9.4111 11.7241 8.81446 11.1033 8.39419C10.4825 7.97392 9.74996 7.7493 9.00024 7.7493C8.25053 7.7493 7.51802 7.97392 6.89718 8.39419C6.27634 8.81446 5.79566 9.4111 5.51713 10.1071M5.25012 13H1.5V11.4999C1.50003 11.0323 1.64576 10.5763 1.91691 10.1954C2.18806 9.8144 2.57117 9.52737 3.01299 9.37419C3.4548 9.22101 3.93336 9.20928 4.38215 9.34064C4.83093 9.472 5.22764 9.73992 5.51713 10.1071M5.25012 13V11.4999C5.25012 11.0079 5.34463 10.5377 5.51713 10.1071M11.2503 3.24968C11.2503 3.84643 11.0133 4.41875 10.5913 4.84072C10.1693 5.26269 9.597 5.49975 9.00024 5.49975C8.40349 5.49975 7.83117 5.26269 7.4092 4.84072C6.98723 4.41875 6.75017 3.84643 6.75017 3.24968C6.75017 2.65292 6.98723 2.08061 7.4092 1.65863C7.83117 1.23666 8.40349 0.999603 9.00024 0.999603C9.597 0.999603 10.1693 1.23666 10.5913 1.65863C11.0133 2.08061 11.2503 2.65292 11.2503 3.24968ZM15.7505 5.49975C15.7505 5.89759 15.5924 6.27913 15.3111 6.56044C15.0298 6.84176 14.6483 6.9998 14.2504 6.9998C13.8526 6.9998 13.471 6.84176 13.1897 6.56044C12.9084 6.27913 12.7504 5.89759 12.7504 5.49975C12.7504 5.10191 12.9084 4.72037 13.1897 4.43906C13.471 4.15774 13.8526 3.9997 14.2504 3.9997C14.6483 3.9997 15.0298 4.15774 15.3111 4.43906C15.5924 4.72037 15.7505 5.10191 15.7505 5.49975ZM5.25012 5.49975C5.25012 5.89759 5.09208 6.27913 4.81077 6.56044C4.52945 6.84176 4.14791 6.9998 3.75007 6.9998C3.35224 6.9998 2.97069 6.84176 2.68938 6.56044C2.40806 6.27913 2.25002 5.89759 2.25002 5.49975C2.25002 5.10191 2.40806 4.72037 2.68938 4.43906C2.97069 4.15774 3.35224 3.9997 3.75007 3.9997C4.14791 3.9997 4.52945 4.15774 4.81077 4.43906C5.09208 4.72037 5.25012 5.10191 5.25012 5.49975Z" stroke="black" stroke-width="1.21875" stroke-linecap="round" stroke-linejoin="round"/>
</svg>
