<svg width="15" height="15" viewBox="0 0 15 15" fill="none" xmlns="http://www.w3.org/2000/svg">
<path d="M7.5 2.44444C7.5 2.06135 7.65218 1.69395 7.92307 1.42307C8.19395 1.15218 8.56135 1 8.94444 1C9.32753 1 9.69493 1.15218 9.96582 1.42307C10.2367 1.69395 10.3889 2.06135 10.3889 2.44444V3.16667C10.3889 3.35821 10.465 3.54191 10.6004 3.67735C10.7359 3.8128 10.9196 3.88889 11.1111 3.88889H13.2778C13.4693 3.88889 13.653 3.96498 13.7885 4.10042C13.9239 4.23587 14 4.41957 14 4.61111V6.77778C14 6.96932 13.9239 7.15302 13.7885 7.28847C13.653 7.42391 13.4693 7.5 13.2778 7.5H12.5556C12.1725 7.5 11.8051 7.65218 11.5342 7.92307C11.2633 8.19395 11.1111 8.56135 11.1111 8.94444C11.1111 9.32753 11.2633 9.69493 11.5342 9.96582C11.8051 10.2367 12.1725 10.3889 12.5556 10.3889H13.2778C13.4693 10.3889 13.653 10.465 13.7885 10.6004C13.9239 10.7359 14 10.9196 14 11.1111V13.2778C14 13.4693 13.9239 13.653 13.7885 13.7885C13.653 13.9239 13.4693 14 13.2778 14H11.1111C10.9196 14 10.7359 13.9239 10.6004 13.7885C10.465 13.653 10.3889 13.4693 10.3889 13.2778V12.5556C10.3889 12.1725 10.2367 11.8051 9.96582 11.5342C9.69493 11.2633 9.32753 11.1111 8.94444 11.1111C8.56135 11.1111 8.19395 11.2633 7.92307 11.5342C7.65218 11.8051 7.5 12.1725 7.5 12.5556V13.2778C7.5 13.4693 7.42391 13.653 7.28847 13.7885C7.15302 13.9239 6.96932 14 6.77778 14H4.61111C4.41957 14 4.23587 13.9239 4.10042 13.7885C3.96498 13.653 3.88889 13.4693 3.88889 13.2778V11.1111C3.88889 10.9196 3.8128 10.7359 3.67735 10.6004C3.54191 10.465 3.35821 10.3889 3.16667 10.3889H2.44444C2.06135 10.3889 1.69395 10.2367 1.42307 9.96582C1.15218 9.69493 1 9.32753 1 8.94444C1 8.56135 1.15218 8.19395 1.42307 7.92307C1.69395 7.65218 2.06135 7.5 2.44444 7.5H3.16667C3.35821 7.5 3.54191 7.42391 3.67735 7.28847C3.8128 7.15302 3.88889 6.96932 3.88889 6.77778V4.61111C3.88889 4.41957 3.96498 4.23587 4.10042 4.10042C4.23587 3.96498 4.41957 3.88889 4.61111 3.88889H6.77778C6.96932 3.88889 7.15302 3.8128 7.28847 3.67735C7.42391 3.54191 7.5 3.35821 7.5 3.16667V2.44444Z" stroke="black" stroke-width="1.44444" stroke-linecap="round" stroke-linejoin="round"/>
</svg>
