<svg width="16" height="13" viewBox="0 0 16 13" fill="none" xmlns="http://www.w3.org/2000/svg">
<path d="M5.66667 7.22222H10.3333H5.66667ZM8 4.88889V9.55556V4.88889ZM1 10.3333V2.55556C1 2.143 1.16389 1.74733 1.45561 1.45561C1.74733 1.16389 2.143 1 2.55556 1H7.22222L8.77778 2.55556H13.4444C13.857 2.55556 14.2527 2.71944 14.5444 3.01117C14.8361 3.30289 15 3.69855 15 4.11111V10.3333C15 10.7459 14.8361 11.1416 14.5444 11.4333C14.2527 11.725 13.857 11.8889 13.4444 11.8889H2.55556C2.143 11.8889 1.74733 11.725 1.45561 11.4333C1.16389 11.1416 1 10.7459 1 10.3333Z" stroke="black" stroke-width="1.16667" stroke-linecap="round" stroke-linejoin="round"/>
</svg>
