<svg width="20" height="20" viewBox="0 0 20 20" fill="none" xmlns="http://www.w3.org/2000/svg">
<path d="M8.325 2.31703C8.751 0.561029 11.249 0.561029 11.675 2.31703C11.7389 2.58083 11.8642 2.82581 12.0407 3.03203C12.2172 3.23825 12.4399 3.39988 12.6907 3.50377C12.9414 3.60767 13.2132 3.65088 13.4838 3.6299C13.7544 3.60892 14.0162 3.52433 14.248 3.38303C15.791 2.44303 17.558 4.20903 16.618 5.75303C16.4769 5.98468 16.3924 6.24637 16.3715 6.5168C16.3506 6.78724 16.3938 7.0588 16.4975 7.30941C16.6013 7.56002 16.7627 7.78261 16.9687 7.95908C17.1747 8.13555 17.4194 8.26093 17.683 8.32503C19.439 8.75103 19.439 11.249 17.683 11.675C17.4192 11.7389 17.1742 11.8642 16.968 12.0407C16.7618 12.2172 16.6001 12.4399 16.4963 12.6907C16.3924 12.9414 16.3491 13.2132 16.3701 13.4838C16.3911 13.7544 16.4757 14.0163 16.617 14.248C17.557 15.791 15.791 17.558 14.247 16.618C14.0153 16.4769 13.7537 16.3925 13.4832 16.3715C13.2128 16.3506 12.9412 16.3938 12.6906 16.4976C12.44 16.6013 12.2174 16.7628 12.0409 16.9688C11.8645 17.1747 11.7391 17.4195 11.675 17.683C11.249 19.439 8.751 19.439 8.325 17.683C8.26108 17.4192 8.13578 17.1742 7.95929 16.968C7.7828 16.7618 7.56011 16.6002 7.30935 16.4963C7.05859 16.3924 6.78683 16.3492 6.51621 16.3702C6.24559 16.3911 5.98375 16.4757 5.752 16.617C4.209 17.557 2.442 15.791 3.382 14.247C3.5231 14.0154 3.60755 13.7537 3.62848 13.4833C3.64942 13.2128 3.60624 12.9413 3.50247 12.6906C3.3987 12.44 3.23726 12.2175 3.03127 12.041C2.82529 11.8645 2.58056 11.7391 2.317 11.675C0.561 11.249 0.561 8.75103 2.317 8.32503C2.5808 8.26111 2.82578 8.13581 3.032 7.95932C3.23822 7.78283 3.39985 7.56014 3.50375 7.30938C3.60764 7.05861 3.65085 6.78686 3.62987 6.51624C3.60889 6.24562 3.5243 5.98378 3.383 5.75203C2.443 4.20903 4.209 2.44203 5.753 3.38203C6.749 3.99003 8.049 3.45203 8.325 2.31703Z" stroke="#262626" stroke-width="1.5" stroke-linecap="round" stroke-linejoin="round"/>
</svg>
