<svg width="18" height="22" viewBox="0 0 18 22" fill="none" xmlns="http://www.w3.org/2000/svg">
<path d="M17.318 2.98203L9.35391 0.267969C9.25781 0.235156 9.12891 0.21875 9 0.21875C8.87109 0.21875 8.74219 0.235156 8.64609 0.267969L0.682031 2.98203C0.4875 3.04766 0.328125 3.27266 0.328125 3.47891L0.328125 14.7852C0.328125 14.9914 0.461719 15.2633 0.623438 15.3922L8.70234 21.6875C8.78437 21.7508 8.88984 21.7836 8.99766 21.7836C9.10547 21.7836 9.21328 21.7508 9.29297 21.6875L17.3719 15.3922C17.5336 15.2656 17.6672 14.9937 17.6672 14.7852L17.6672 3.47891C17.6719 3.27266 17.5125 3.05 17.318 2.98203ZM15.9844 14.3352L9 19.7773L2.01562 14.3352L2.01562 4.31328L9 1.93203L15.9844 4.31328L15.9844 14.3352ZM6.47344 9.62422C6.40313 9.52812 6.29063 9.46953 6.16875 9.46953L4.875 9.46953C4.72266 9.46953 4.63359 9.64297 4.72266 9.76719L7.68516 13.8453C7.72019 13.8933 7.76604 13.9323 7.81898 13.9591C7.87192 13.986 7.93046 14 7.98984 14C8.04922 14 8.10776 13.986 8.16071 13.9591C8.21365 13.9323 8.2595 13.8933 8.29453 13.8453L13.2773 6.98516C13.3664 6.86094 13.2773 6.6875 13.125 6.6875H11.8312C11.7117 6.6875 11.5969 6.74609 11.5266 6.84219L7.98984 11.7125L6.47344 9.62422Z" fill="#262626"/>
</svg>
