<svg width="14" height="15" viewBox="0 0 14 15" fill="none" xmlns="http://www.w3.org/2000/svg">
<path d="M13.4506 9.77555L12.4272 8.90055C12.4756 8.60368 12.5006 8.30055 12.5006 7.99742C12.5006 7.6943 12.4756 7.39118 12.4272 7.0943L13.4506 6.2193C13.5278 6.15322 13.5831 6.0652 13.609 5.96695C13.635 5.86871 13.6304 5.76489 13.5959 5.6693L13.5819 5.62867C13.3001 4.84122 12.8782 4.11123 12.3366 3.47399L12.3084 3.44117C12.2427 3.36391 12.1552 3.30837 12.0572 3.28187C11.9593 3.25538 11.8557 3.25916 11.76 3.29274L10.4897 3.7443C10.0209 3.35992 9.4975 3.0568 8.93188 2.8443L8.68656 1.51617C8.66806 1.41624 8.61958 1.3243 8.54757 1.25258C8.47557 1.18085 8.38344 1.13273 8.28344 1.11461L8.24125 1.1068C7.42719 0.959924 6.57094 0.959924 5.75688 1.1068L5.71469 1.11461C5.61468 1.13273 5.52256 1.18085 5.45055 1.25258C5.37855 1.3243 5.33007 1.41624 5.31156 1.51617L5.06469 2.85055C4.50358 3.06309 3.98104 3.36606 3.51781 3.74742L2.23813 3.29274C2.14245 3.2589 2.03874 3.25497 1.94077 3.28149C1.84281 3.308 1.75524 3.3637 1.68969 3.44117L1.66156 3.47399C1.12054 4.11168 0.698713 4.84155 0.416251 5.62867L0.402188 5.6693C0.331876 5.86461 0.389688 6.08336 0.547501 6.2193L1.58344 7.10368C1.535 7.39743 1.51156 7.69742 1.51156 7.99586C1.51156 8.29586 1.535 8.59586 1.58344 8.88805L0.547501 9.77243C0.470307 9.83851 0.415058 9.92653 0.389101 10.0248C0.363144 10.123 0.367708 10.2268 0.402188 10.3224L0.416251 10.3631C0.699063 11.1506 1.11781 11.8771 1.66156 12.5177L1.68969 12.5506C1.7554 12.6278 1.84298 12.6834 1.94088 12.7099C2.03878 12.7363 2.14242 12.7326 2.23813 12.699L3.51781 12.2443C3.98344 12.6271 4.50375 12.9302 5.06469 13.1412L5.31156 14.4756C5.33007 14.5755 5.37855 14.6674 5.45055 14.7391C5.52256 14.8109 5.61468 14.859 5.71469 14.8771L5.75688 14.8849C6.57842 15.0326 7.41971 15.0326 8.24125 14.8849L8.28344 14.8771C8.38344 14.859 8.47557 14.8109 8.54757 14.7391C8.61958 14.6674 8.66806 14.5755 8.68656 14.4756L8.93188 13.1474C9.49727 12.9355 10.0237 12.6314 10.4897 12.2474L11.76 12.699C11.8557 12.7328 11.9594 12.7368 12.0574 12.7102C12.1553 12.6837 12.2429 12.628 12.3084 12.5506L12.3366 12.5177C12.8803 11.8756 13.2991 11.1506 13.5819 10.3631L13.5959 10.3224C13.6663 10.1302 13.6084 9.91149 13.4506 9.77555V9.77555ZM11.3178 7.27867C11.3569 7.51461 11.3772 7.7568 11.3772 7.99899C11.3772 8.24118 11.3569 8.48336 11.3178 8.7193L11.2147 9.34586L12.3819 10.3443C12.2049 10.7519 11.9816 11.1378 11.7163 11.4943L10.2663 10.9802L9.77563 11.3834C9.40219 11.6896 8.98656 11.9302 8.53656 12.099L7.94125 12.3224L7.66156 13.8381C7.22027 13.8881 6.77473 13.8881 6.33344 13.8381L6.05375 12.3193L5.46313 12.0927C5.01781 11.924 4.60375 11.6834 4.23344 11.3787L3.74281 10.974L2.28344 11.4927C2.01781 11.1349 1.79594 10.749 1.61781 10.3427L2.7975 9.33493L2.69594 8.70993C2.65844 8.47711 2.63813 8.23649 2.63813 7.99899C2.63813 7.75993 2.65688 7.52086 2.69594 7.28805L2.7975 6.66305L1.61781 5.65524C1.79438 5.24742 2.01781 4.86305 2.28344 4.50524L3.74281 5.02399L4.23344 4.6193C4.60375 4.31461 5.01781 4.07399 5.46313 3.90524L6.05531 3.6818L6.335 2.16305C6.77406 2.11305 7.2225 2.11305 7.66313 2.16305L7.94281 3.67867L8.53813 3.90211C8.98656 4.07086 9.40375 4.31149 9.77719 4.61774L10.2678 5.02086L11.7178 4.5068C11.9834 4.86461 12.2053 5.25055 12.3834 5.6568L11.2163 6.65524L11.3178 7.27867ZM7.00063 5.09274C5.48188 5.09274 4.25063 6.32399 4.25063 7.84274C4.25063 9.36149 5.48188 10.5927 7.00063 10.5927C8.51938 10.5927 9.75063 9.36149 9.75063 7.84274C9.75063 6.32399 8.51938 5.09274 7.00063 5.09274ZM8.23813 9.08024C8.07582 9.24301 7.88292 9.37209 7.67055 9.46005C7.45817 9.548 7.2305 9.5931 7.00063 9.59274C6.53344 9.59274 6.09438 9.40993 5.76313 9.08024C5.60035 8.91793 5.47127 8.72504 5.38332 8.51266C5.29536 8.30028 5.25027 8.07261 5.25063 7.84274C5.25063 7.37555 5.43344 6.93649 5.76313 6.60524C6.09438 6.27399 6.53344 6.09274 7.00063 6.09274C7.46781 6.09274 7.90688 6.27399 8.23813 6.60524C8.4009 6.76755 8.52998 6.96044 8.61793 7.17282C8.70589 7.38519 8.75098 7.61287 8.75063 7.84274C8.75063 8.30993 8.56781 8.74899 8.23813 9.08024Z" fill="#595959"/>
</svg>
