<svg width="16" height="15" viewBox="0 0 16 15" fill="none" xmlns="http://www.w3.org/2000/svg">
<path d="M10.3333 1.00043L5.66667 3.33377M5.66667 13.4449L1.43011 11.3262C1.30094 11.2617 1.19228 11.1624 1.11632 11.0396C1.04035 10.9168 1.00008 10.7753 1 10.6309V2.25888C1.00007 2.12635 1.034 1.99604 1.09858 1.88031C1.16315 1.76458 1.25623 1.66727 1.36897 1.59762C1.48172 1.52796 1.61039 1.48827 1.74278 1.4823C1.87517 1.47634 2.0069 1.50431 2.12544 1.56355L5.66667 3.33377V13.4449ZM5.66667 13.4449L10.3333 11.1115L5.66667 13.4449ZM5.66667 13.4449V3.33377V13.4449ZM10.3333 11.1115L13.8746 12.8818C13.9931 12.941 14.1248 12.969 14.2572 12.963C14.3896 12.957 14.5183 12.9174 14.631 12.8477C14.7438 12.778 14.8368 12.6807 14.9014 12.565C14.966 12.4493 14.9999 12.319 15 12.1864V3.81443C14.9999 3.67003 14.9596 3.5285 14.8837 3.40569C14.8077 3.28288 14.6991 3.18365 14.5699 3.1191L10.3333 1.00043V11.1115ZM10.3333 11.1115V1.00043V11.1115Z" stroke="black" stroke-width="1.3" stroke-linecap="round" stroke-linejoin="round"/>
</svg>
